<svg xmlns="http://www.w3.org/2000/svg" width="25.149" height="24.625" viewBox="0 0 25.149 24.625"><defs><style>.a{fill:#02475b;}</style></defs><path class="a" d="M22.686,7.007h-2.58V4.269A3.514,3.514,0,0,0,16.6.72H9.991A3.514,3.514,0,0,0,6.483,4.269V7.007H3.9A3.125,3.125,0,0,0,.72,10.118V22.172A3.178,3.178,0,0,0,3.9,25.345H22.686a3.178,3.178,0,0,0,3.183-3.174V10.118A3.126,3.126,0,0,0,22.686,7.007ZM8.579,4.269A1.513,1.513,0,0,1,9.991,2.816H16.6A1.514,1.514,0,0,1,18.01,4.269V7.007H8.579ZM19.058,18.534H15.391V22.2H11.2V18.534H7.531V14.343H11.2V10.675h4.192v3.668h3.668v4.192Z" transform="translate(-0.72 -0.72)"/></svg>