<svg xmlns="http://www.w3.org/2000/svg" width="27.497" height="19.246" viewBox="0 0 27.497 19.246"><defs><style>.a{fill:#02475b;}</style></defs><path class="a" d="M26.232,14.665a5.04,5.04,0,0,0,0-1.83l1.109-.64a.311.311,0,0,0,.142-.365,6.448,6.448,0,0,0-1.427-2.466.313.313,0,0,0-.387-.06l-1.109.64a5.045,5.045,0,0,0-1.586-.915V7.747a.313.313,0,0,0-.245-.305,6.483,6.483,0,0,0-2.845,0,.313.313,0,0,0-.245.305v1.28a5.045,5.045,0,0,0-1.586.915L16.947,9.3a.314.314,0,0,0-.387.06,6.448,6.448,0,0,0-1.427,2.466.316.316,0,0,0,.142.365l1.109.64a5.04,5.04,0,0,0,0,1.83l-1.109.64a.311.311,0,0,0-.142.365,6.48,6.48,0,0,0,1.427,2.466.313.313,0,0,0,.387.06l1.109-.64a5.045,5.045,0,0,0,1.586.915v1.28a.313.313,0,0,0,.245.305,6.483,6.483,0,0,0,2.845,0,.313.313,0,0,0,.245-.305v-1.28a5.045,5.045,0,0,0,1.586-.915l1.109.64a.314.314,0,0,0,.387-.06,6.448,6.448,0,0,0,1.427-2.466.316.316,0,0,0-.142-.365l-1.109-.64Zm-4.92,1.169A2.084,2.084,0,1,1,23.4,13.75,2.086,2.086,0,0,1,21.313,15.834ZM4.125,9.625a2.75,2.75,0,1,0-2.75-2.75A2.753,2.753,0,0,0,4.125,9.625ZM13.75,11c.082,0,.159-.021.241-.026A7.921,7.921,0,0,1,15.55,8.43a1.694,1.694,0,0,1,1.242-.541,1.652,1.652,0,0,1,.842.228l.339.2c.034-.021.069-.039.1-.06a4.756,4.756,0,0,0,.481-2.062A4.81,4.81,0,1,0,13.75,11Zm4.52,8.357c-.1-.052-.2-.112-.292-.168a2.123,2.123,0,0,1-1.182.421,1.708,1.708,0,0,1-1.242-.541,7.835,7.835,0,0,1-1.727-2.991,1.834,1.834,0,0,1,1.109-2.161q-.006-.168,0-.335l-.339-.2a1.75,1.75,0,0,1-.421-.348c-.142.009-.279.026-.421.026a6.783,6.783,0,0,1-2.943-.687h-.357A4.952,4.952,0,0,0,5.5,17.325v1.237a2.063,2.063,0,0,0,2.063,2.063H18.537a1.654,1.654,0,0,1-.266-.872v-.4ZM7.438,11.8A2.742,2.742,0,0,0,5.5,11H2.75A2.753,2.753,0,0,0,0,13.75v1.375A1.374,1.374,0,0,0,1.375,16.5H4.207a6.3,6.3,0,0,1,3.231-4.7Z" transform="translate(0 -1.379)"/></svg>