<svg xmlns="http://www.w3.org/2000/svg" width="17.875" height="17.875" viewBox="0 0 17.875 17.875"><defs><style>.a{fill:#02475b;}</style></defs><path class="a" d="M11,2.063A8.938,8.938,0,1,0,19.938,11,8.936,8.936,0,0,0,11,2.063Zm2.264,12.173L11,11.971,8.736,14.236a.687.687,0,1,1-.971-.971L10.029,11,7.764,8.736a.687.687,0,0,1,.971-.971L11,10.029l2.264-2.264a.687.687,0,0,1,.971.971L11.971,11l2.264,2.264a.69.69,0,0,1,0,.971A.682.682,0,0,1,13.264,14.236Z" transform="translate(-2.063 -2.063)"/></svg>