<svg xmlns="http://www.w3.org/2000/svg" width="18.857" height="16.762" viewBox="0 0 18.857 16.762"><defs><style>.a{fill:#02475b;}</style></defs><path class="a" d="M14.143,15.757v-.864A4.679,4.679,0,0,0,16.238,11c0-2.6,0-4.714-3.143-4.714S9.952,8.4,9.952,11a4.679,4.679,0,0,0,2.1,3.893v.864c-3.554.291-6.286,2.037-6.286,4.148H20.429C20.429,17.794,17.7,16.048,14.143,15.757Zm-7.216.4a9.953,9.953,0,0,1,3.27-1.316,5.91,5.91,0,0,1-.663-.966A6,6,0,0,1,8.774,11a9.3,9.3,0,0,1,.5-3.826,3.411,3.411,0,0,1,2.606-1.956C11.6,3.966,10.867,3.143,8.9,3.143c-3.143,0-3.143,2.111-3.143,4.714a4.679,4.679,0,0,0,2.1,3.893v.864C4.3,12.9,1.571,14.651,1.571,16.762H6.138a6.71,6.71,0,0,1,.789-.6Z" transform="translate(-1.571 -3.143)"/></svg>