<svg xmlns="http://www.w3.org/2000/svg" width="18.625" height="16.552" viewBox="0 0 18.625 16.552"><defs><style>.a{fill:#02475b;}</style></defs><path class="a" d="M13.018,2.694l2.917,2.917a.316.316,0,0,1,0,.446L8.873,13.119l-3,.333a.629.629,0,0,1-.7-.7l.333-3,7.062-7.062A.316.316,0,0,1,13.018,2.694Zm5.238-.74L16.678.376a1.265,1.265,0,0,0-1.785,0L13.749,1.52a.316.316,0,0,0,0,.446l2.917,2.917a.316.316,0,0,0,.446,0l1.145-1.145a1.265,1.265,0,0,0,0-1.785ZM12.416,11.2V14.49H2.069V4.143H9.5a.4.4,0,0,0,.275-.113l1.293-1.293a.388.388,0,0,0-.275-.663H1.552A1.552,1.552,0,0,0,0,3.625V15.007a1.552,1.552,0,0,0,1.552,1.552H12.934a1.552,1.552,0,0,0,1.552-1.552V9.9a.389.389,0,0,0-.663-.275L12.53,10.923A.4.4,0,0,0,12.416,11.2Z" transform="translate(0 -0.007)"/></svg>