<svg xmlns="http://www.w3.org/2000/svg" width="22" height="16.5" viewBox="0 0 22 16.5"><defs><style>.a{fill:#02475b;}</style></defs><path class="a" d="M21.583,8.2A.259.259,0,0,1,22,8.4v8.787a2.063,2.063,0,0,1-2.062,2.063H2.063A2.063,2.063,0,0,1,0,17.188V8.4a.257.257,0,0,1,.417-.2c.962.748,2.239,1.7,6.621,4.881.907.662,2.436,2.054,3.962,2.045,1.534.013,3.094-1.409,3.966-2.045C19.349,9.9,20.621,8.946,21.583,8.2ZM11,13.75c1,.017,2.432-1.255,3.154-1.779,5.7-4.138,6.136-4.5,7.451-5.53a1.028,1.028,0,0,0,.4-.812V4.813A2.063,2.063,0,0,0,19.938,2.75H2.063A2.063,2.063,0,0,0,0,4.813v.816a1.035,1.035,0,0,0,.4.812c1.315,1.027,1.749,1.392,7.451,5.53C8.568,12.5,10,13.767,11,13.75Z" transform="translate(0 -2.75)"/></svg>